<?xml version="1.0" ?><!DOCTYPE svg  PUBLIC '-//W3C//DTD SVG 1.1//EN'  'http://www.w3.org/Graphics/SVG/1.1/DTD/svg11.dtd'><svg enable-background="new 0 0 512 512" height="512px" id="Layer_1" version="1.1" viewBox="0 0 512 512" width="512px" xml:space="preserve" xmlns="http://www.w3.org/2000/svg" xmlns:xlink="http://www.w3.org/1999/xlink"><g><path d="M173.66,213.897h45.896c4.971,0,9-4.029,9-9v-42.804c0-4.971-4.029-9-9-9H173.66c-4.971,0-9,4.029-9,9v42.804   C164.66,209.868,168.689,213.897,173.66,213.897z M182.66,171.094h27.896v24.804H182.66V171.094z"/><path d="M60.977,243.093L35.298,380.254c-0.914,4.886,2.305,9.588,7.19,10.503l93.258,17.46c0.55,0.103,1.104,0.153,1.656,0.153   c1.802,0,3.576-0.541,5.084-1.573c1.97-1.349,3.323-3.425,3.763-5.771l25.563-136.535c8.358,9.331,20.488,15.216,33.972,15.216   c22.072,0,40.528-15.759,44.72-36.614h28.36c4.971,0,9-4.029,9-9v-36.496h184.561c4.971,0,9-4.029,9-9v-49.346V132.9V112.63   c0-4.971-4.029-9-9-9s-9,4.029-9,9V123.9H278.863H143.748c-2.299,0-4.51,0.88-6.181,2.458l-23.775,22.461   c-10.991-10.86-31.491-24.806-67.896-32.031c-4.033-0.798-8.101,1.237-9.873,4.949c-1.773,3.713-0.804,8.154,2.355,10.79   c0.312,0.259,29.513,24.897,36.908,52.668l-41.892,39.575c-1.8,1.7-2.819,4.066-2.819,6.542v2.78c0,4.971,4.029,9,9,9H60.977z    M130.212,388.867L54.647,374.72L79.29,243.093h78.214L130.212,388.867z M205.783,261.707c-12.076,0-22.359-7.795-26.102-18.614   h52.203C228.143,253.912,217.859,261.707,205.783,261.707z M463.424,179.597H287.863V141.9h175.561V179.597z M73.443,143.761   c13.098,5.602,21.722,11.998,27.273,17.41l-11.024,10.416C85.584,161.279,79.564,151.781,73.443,143.761z M94.515,191.792   l24.898-23.52c0.006-0.005,0.01-0.011,0.016-0.016l27.898-26.356h122.536v46.696v36.496H168.346H71.818H59.266L94.515,191.792z"/><path d="M82.594,366.682c0.513,0.088,1.022,0.13,1.526,0.13c4.305,0,8.111-3.099,8.86-7.485l15.625-91.437   c0.838-4.899-2.455-9.55-7.355-10.387c-4.893-0.836-9.55,2.455-10.387,7.355l-15.625,91.437   C74.4,361.194,77.693,365.845,82.594,366.682z"/><path d="M114.627,372.502c0.444,0.065,0.886,0.097,1.322,0.097c4.39,0,8.233-3.217,8.893-7.69l13.889-94.33   c0.724-4.917-2.676-9.49-7.594-10.215c-4.913-0.727-9.49,2.675-10.215,7.594l-13.889,94.33   C106.31,367.204,109.709,371.777,114.627,372.502z"/></g></svg>